<svg width="128" height="128" viewBox="0 0 128 128" fill="none" xmlns="http://www.w3.org/2000/svg">
  <!-- Background -->
  <rect width="128" height="128" rx="24" fill="#3B82F6"/>

  <!-- Train body -->
  <rect x="24" y="44" width="80" height="44" rx="8" fill="white"/>

  <!-- Train front (locomotive nose) -->
  <path d="M104 52C108 52 112 56 112 60V80C112 84 108 88 104 88V52Z" fill="white"/>

  <!-- Window row -->
  <rect x="32" y="52" width="12" height="10" rx="2" fill="#3B82F6"/>
  <rect x="48" y="52" width="12" height="10" rx="2" fill="#3B82F6"/>
  <rect x="64" y="52" width="12" height="10" rx="2" fill="#3B82F6"/>
  <rect x="80" y="52" width="12" height="10" rx="2" fill="#3B82F6"/>

  <!-- Train front window -->
  <rect x="96" y="56" width="10" height="16" rx="2" fill="#3B82F6"/>

  <!-- Wheels -->
  <circle cx="40" cy="92" r="8" fill="white"/>
  <circle cx="40" cy="92" r="4" fill="#3B82F6"/>
  <circle cx="64" cy="92" r="8" fill="white"/>
  <circle cx="64" cy="92" r="4" fill="#3B82F6"/>
  <circle cx="88" cy="92" r="8" fill="white"/>
  <circle cx="88" cy="92" r="4" fill="#3B82F6"/>

  <!-- Track/rail line -->
  <rect x="16" y="98" width="96" height="4" rx="2" fill="white" opacity="0.6"/>

  <!-- Smokestack -->
  <rect x="32" y="32" width="10" height="12" rx="2" fill="white"/>

  <!-- Steam puffs -->
  <circle cx="37" cy="24" r="6" fill="white" opacity="0.8"/>
  <circle cx="48" cy="20" r="5" fill="white" opacity="0.6"/>
  <circle cx="56" cy="24" r="4" fill="white" opacity="0.4"/>
</svg>
